<?xml version="1.0" encoding="utf-8"?>
<!-- Generator: Adobe Illustrator 27.9.0, SVG Export Plug-In . SVG Version: 6.00 Build 0)  -->
<svg version="1.1" id="Layer_1" xmlns="http://www.w3.org/2000/svg" xmlns:xlink="http://www.w3.org/1999/xlink" x="0px" y="0px"
	 viewBox="0 0 944 944" style="enable-background:new 0 0 944 944;" xml:space="preserve">
<style type="text/css">
	.st0{fill:#191919;}
	.st1{enable-background:new    ;}
</style>
<path class="st0" d="M145.6,442.5c-3.5-3.3-5.3-8.8-5.3-14.1c0-10.2,8.4-18.5,18.6-18.5c6.5,0,12.2,3.5,15.5,8.6
	c5.5,8.1,14.5,12.4,25.5,12.4c16.9,0,24.5-6.9,24.5-16.7c0-7.1-3.9-13-18.6-16.1l-25.1-5.3c-28.5-6.1-42.6-20.4-42.6-45.7
	c0-26.7,22.2-47.3,61.4-47.3c21.2,0,37.5,5.9,48.5,16.3c3.5,3.3,5.1,8.4,5.1,13.5c0,9.8-7.9,17.9-17.7,17.9c-6.3,0-12-3.5-15.1-8.4
	c-3.7-5.9-9.8-10.2-21-10.2c-16.1,0-21.8,6.9-21.8,14.1c0,7.5,3.9,13.2,19.4,16.5l24.9,5.3c31.2,6.7,43.6,22.6,43.6,45.7
	c0,26.1-17.3,50.4-66.2,50.4C175.8,460.8,157.4,453.7,145.6,442.5L145.6,442.5z"/>
<path class="st0" d="M282,439.4v-118c0-10.8,8.8-19.6,19.6-19.6s19.6,8.8,19.6,19.6v41.4h56.3v-41.4c0-10.8,8.8-19.6,19.6-19.6
	s19.6,8.8,19.6,19.6v118c0,10.8-8.8,19.6-19.6,19.6s-19.6-8.8-19.6-19.6v-44.9h-56.3v44.9c0,10.8-8.8,19.6-19.6,19.6
	S282,450.2,282,439.4z"/>
<path class="st0" d="M435.3,380.3c0-48.1,28.5-80.1,75.8-80.1s75.4,31.8,75.4,80.1s-28.5,80.3-75.8,80.3S435.3,428.8,435.3,380.3
	L435.3,380.3z M545.3,380.3c0-34.9-14.9-49.1-34.5-49.1s-34.5,14.3-34.5,49.1s14.9,49.3,34.5,49.3S545.3,415.1,545.3,380.3
	L545.3,380.3z"/>
<path class="st0" d="M623.7,398.8v-77.5c0-10.8,8.8-19.6,19.8-19.6s19.6,8.8,19.6,19.6V400c0,17.1,7.1,28.3,25.1,28.3
	S713,416.6,713,400v-78.9c0-10.6,8.8-19.4,19.4-19.4s19.6,8.8,19.6,19.4v77.7c0,35.5-16.5,62-63.6,62S623.7,434.9,623.7,398.8
	L623.7,398.8z"/>
<g class="st1">
	<path class="st0" d="M148.6,620.8V515.5c0-16.2,14.4-29.4,32.1-29.4c14,0,25.8,8.1,30.2,19.6l25.6,66.8c1.9,5.3,3.2,9.9,3.9,13.2
		l1.1,5.3h1.3c0.2-1.8,0.4-3.6,1.1-5.5c0.9-3.4,1.9-7.9,4.1-13.4l25.6-67.2c4.1-10.9,15.7-18.8,29.1-18.8
		c16.8,0,30.6,12.6,30.6,28.1V620c0,10.1-9,18.4-20.2,18.4c-11,0-20-8.3-20-18.4v-84h-1.3l-1.7,8.1c-1.1,4.9-3,11.3-5.4,17.6
		l-24.1,63.4c-2.8,7.5-11,13.2-20.2,13.2c-9.5,0-17.4-5.7-20.2-13.2l-24.3-63.6c-2.4-6.3-4.3-12.6-5.4-17.4
		c-0.6-2.8-1.3-5.5-1.7-8.1h-1.3v84.8c0,9.7-8.6,17.6-19.2,17.6C157.2,638.4,148.6,630.4,148.6,620.8z"/>
	<path class="st0" d="M349.3,621.2c0-2,0.4-3.8,1.1-5.5L391.3,507c4.5-12.2,17.2-20.9,32.3-20.9c14.9,0,27.6,8.7,32.1,20.9
		l40.5,107.5c0.6,2,1.1,4,1.1,5.9c0,9.9-8.8,18-19.6,18c-8.8,0-16.2-5.3-18.7-12.4l-7.1-20.7h-58.6l-7.1,21.1
		c-2.4,7.1-9.5,12.1-18.1,12.1C357.7,638.4,349.3,630.6,349.3,621.2z M441.7,575.9l-10.3-30.2c-2.2-6.3-4.1-12.6-5.4-17.4
		c-0.9-2.8-1.5-5.3-2.2-7.7h-2.6c-0.6,2.4-1.3,4.9-2.2,7.7c-1.3,4.7-3.2,11.1-5.4,17.4l-10.3,30.2H441.7z"/>
</g>
<g class="st1">
	<path class="st0" d="M145.3,798.7V689.6c0-10.3,5.6-15.9,15.9-15.9h50c29.8,0,45.3,14.9,45.3,35.3c0,14.4-7.5,25.7-24.8,31.2v0.6
		c16.4,3,29.3,13.8,29.3,31.7c0,25.6-18.8,42.2-50.7,42.2h-49.1C150.9,814.6,145.3,809,145.3,798.7z M203.7,730.1
		c14,0,19.4-5.8,19.4-15.5c0-9.7-5.4-15.3-19.4-15.3h-23.3v30.8H203.7z M205.4,789c13.4,0,21.1-5,21.1-17c0-11.2-8.2-16.4-21.1-16.4
		h-25V789H205.4z"/>
	<path class="st0" d="M268.8,799.8c0-1.9,0.4-3.5,0.9-5.2L305.2,692c3.9-11.6,14.9-19.8,28-19.8c12.9,0,23.9,8.2,27.8,19.8
		L396,793.5c0.6,1.9,0.9,3.7,0.9,5.6c0,9.3-7.6,17-17,17c-7.6,0-14-5-16.2-11.8l-6.2-19.6h-50.7l-6.2,20
		c-2.1,6.7-8.2,11.4-15.7,11.4C276.1,816.1,268.8,808.8,268.8,799.8z M348.8,757.1l-9-28.5c-1.9-6-3.5-11.9-4.7-16.4
		c-0.7-2.6-1.3-5-1.9-7.3h-2.2c-0.6,2.2-1.1,4.7-1.9,7.3c-1.1,4.5-2.8,10.4-4.7,16.4l-9,28.5H348.8z"/>
	<path class="st0" d="M411.5,798.7V689.6c0-10.3,5.6-15.9,15.9-15.9h32.5c41.2,0,76.5,18.7,76.5,70.1c0,47-29.5,70.7-76.5,70.7
		h-32.5C417.1,814.6,411.5,809,411.5,798.7z M459.8,786.2c23.1,0,39.4-9.3,39.4-42.9c0-30.4-14.9-41.4-39.4-41.4H447v84.3H459.8z"/>
	<path class="st0" d="M535.2,799.8c0-1.9,0.4-3.5,0.9-5.2L571.6,692c3.9-11.6,14.9-19.8,28-19.8c12.9,0,23.9,8.2,27.8,19.8
		l35.1,101.5c0.6,1.9,0.9,3.7,0.9,5.6c0,9.3-7.6,17-17,17c-7.6,0-14-5-16.2-11.8l-6.2-19.6h-50.7l-6.2,20
		c-2.1,6.7-8.2,11.4-15.7,11.4C542.5,816.1,535.2,808.8,535.2,799.8z M615.2,757.1l-9-28.5c-1.9-6-3.5-11.9-4.7-16.4
		c-0.7-2.6-1.3-5-1.9-7.3h-2.2c-0.6,2.2-1.1,4.7-1.9,7.3c-1.1,4.5-2.8,10.4-4.7,16.4l-9,28.5H615.2z"/>
	<path class="st0" d="M677.9,798.5V689.8c0-9.7,7.8-17.5,17.5-17.5c9.9,0,17.7,7.8,17.7,17.5v45.7L758,678c2.6-3.4,7.1-5.8,11.8-5.8
		c8.2,0,14.9,6.7,14.9,14.9c0,3.5-1.3,6.9-3.4,9.3l-28.5,35.4l36.4,56.9c1.7,2.8,2.8,6,2.8,9.5c0,9.9-7.8,17.7-17.5,17.7
		c-6.3,0-11.9-3.4-15.1-8.2L728.7,759l-15.5,19v20.5c0,9.7-7.8,17.5-17.7,17.5C685.8,816.1,677.9,808.2,677.9,798.5z"/>
</g>
<path class="st0" d="M782.6,173.6H678.8c0.2-2.4,0.3-4.7,0.3-7.1V85.4C679.1,38.3,645.9,0,605,0H338.9c-40.8,0-74.1,38.3-74.1,85.4
	v81.1c0,2.4,0.1,4.8,0.3,7.1H161.3c-89,0-161.3,83.5-161.3,186v398.2c0,102.6,72.4,186,161.3,186h621.3c89,0,161.3-83.5,161.3-186
	V359.7C944,257.1,871.6,173.6,782.6,173.6L782.6,173.6z M332.7,166.5V85.4c0-3.9,2.8-7.1,6.2-7.1H605c3.4,0,6.2,3.2,6.2,7.1v81.1
	c0,3.9-2.8,7.1-6.2,7.1H338.9C335.5,173.6,332.7,170.4,332.7,166.5L332.7,166.5z M876.1,757.9c0,59.4-41.9,107.8-93.4,107.8H161.3
	c-51.5,0-93.4-48.3-93.4-107.8V359.7c0-59.4,41.9-107.8,93.4-107.8h621.3c51.5,0,93.4,48.3,93.4,107.8L876.1,757.9L876.1,757.9z"/>
<path class="st0" d="M638.7,480.4l-57.9-57.9l11.1,11.1l-16.3-16.3l-32.5,32.5l16.3,16.3L548.2,455l57.9,57.9c9,9,23.5,9,32.5,0
	C647.7,503.9,647.7,489.4,638.7,480.4L638.7,480.4z"/>
</svg>
